<svg xmlns="http://www.w3.org/2000/svg" viewBox="0 0 64 64">
  <defs>
    <linearGradient id="bg" x1="8" y1="7" x2="56" y2="58" gradientUnits="userSpaceOnUse">
      <stop offset="0" stop-color="#286bd2"/>
      <stop offset="1" stop-color="#43308e"/>
    </linearGradient>
    <linearGradient id="mark" x1="18" y1="14" x2="47" y2="50" gradientUnits="userSpaceOnUse">
      <stop offset="0" stop-color="#ffffff"/>
      <stop offset="1" stop-color="#e6eeff"/>
    </linearGradient>
  </defs>
  <rect width="64" height="64" rx="16" fill="#11172e"/>
  <rect x="5" y="5" width="54" height="54" rx="14" fill="url(#bg)"/>
  <path d="M19 17h16c7 0 11 3.4 11 8.8 0 3.4-1.8 5.9-5 7.1 4 1.2 6.2 4.1 6.2 7.9 0 5.8-4.6 9.2-12.2 9.2H19V17Zm9 13h6.2c2.4 0 3.8-1.1 3.8-3s-1.4-3-3.8-3H28v6Zm0 13h7c2.7 0 4.1-1.2 4.1-3.3 0-2-1.4-3.2-4.1-3.2h-7V43Z" fill="url(#mark)"/>
  <path d="M49 17v33" stroke="#c7d2fe" stroke-width="4" stroke-linecap="round" opacity=".75"/>
  <path d="M43 17h12" stroke="#eef3ff" stroke-width="4" stroke-linecap="round"/>
</svg>
